HIERARCHY
ROOT Hips
{
	OFFSET 0.000000 0.000000 0.000000
	CHANNELS 6 Xposition Yposition Zposition Zrotation Yrotation Xrotation 
	JOINT LHipJoint
	{
		OFFSET 0.000000 0.000000 0.000000
		CHANNELS 3 Zrotation Yrotation Xrotation
		JOINT LeftUpLeg
		{
			OFFSET 1.363060 -1.794630 0.839290
			CHANNELS 3 Zrotation Yrotation Xrotation
			JOINT LeftLeg
			{
				OFFSET 2.448110 -6.726130 0.000000
				CHANNELS 3 Zrotation Yrotation Xrotation
				JOINT LeftFoot
				{
					OFFSET 2.562200 -7.039590 0.000000
					CHANNELS 3 Zrotation Yrotation Xrotation
					JOINT LeftToeBase
					{
						OFFSET 0.157640 -0.433110 2.322550
						CHANNELS 3 Zrotation Yrotation Xrotation
						End Site
						{
							OFFSET 0.000000 0.000000 0.000000
						}
					}
				}
			}
		}
	}
	JOINT RHipJoint
	{
		OFFSET 0.000000 0.000000 0.000000
		CHANNELS 3 Zrotation Yrotation Xrotation
		JOINT RightUpLeg
		{
			OFFSET -1.305520 -1.794630 0.839290
			CHANNELS 3 Zrotation Yrotation Xrotation
			JOINT RightLeg
			{
				OFFSET -2.542530 -6.985550 0.000000
				CHANNELS 3 Zrotation Yrotation Xrotation
				JOINT RightFoot
				{
					OFFSET -2.568260 -7.056230 0.000000
					CHANNELS 3 Zrotation Yrotation Xrotation
					JOINT RightToeBase
					{
						OFFSET -0.164730 -0.452590 2.363150
						CHANNELS 3 Zrotation Yrotation Xrotation
						End Site
						{
							OFFSET 0.000000 0.000000 0.000000
						}
					}
				}
			}
		}
	}
	JOINT LowerBack
	{
		OFFSET 0.000000 0.000000 0.000000
		CHANNELS 3 Zrotation Yrotation Xrotation
		JOINT Spine
		{
			OFFSET 0.028270 2.035590 -0.193380
			CHANNELS 3 Zrotation Yrotation Xrotation
			JOINT Spine1
			{
				OFFSET 0.056720 2.048850 -0.042750
				CHANNELS 3 Zrotation Yrotation Xrotation
				JOINT Neck
				{
					OFFSET 0.000000 0.000000 0.000000
					CHANNELS 3 Zrotation Yrotation Xrotation
					JOINT Neck1
					{
						OFFSET -0.054170 1.746240 0.172020
						CHANNELS 3 Zrotation Yrotation Xrotation
						JOINT Head
						{
							OFFSET 0.104070 1.761360 -0.123970
							CHANNELS 3 Zrotation Yrotation Xrotation
							End Site
							{
								OFFSET 0.000000 0.000000 0.000000
							}
						}
					}
				}
				JOINT LeftShoulder
				{
					OFFSET 0.000000 0.000000 0.000000
					CHANNELS 3 Zrotation Yrotation Xrotation
					JOINT LeftArm
					{
						OFFSET 3.362410 1.200890 -0.311210
						CHANNELS 3 Zrotation Yrotation Xrotation
						JOINT LeftForeArm
						{
							OFFSET 4.983000 -0.000000 -0.000000
							CHANNELS 3 Zrotation Yrotation Xrotation
							JOINT LeftHand
							{
								OFFSET 3.483560 -0.000000 -0.000000
								CHANNELS 3 Zrotation Yrotation Xrotation
								JOINT LeftFingerBase
								{
									OFFSET 0.000000 0.000000 0.000000
									CHANNELS 3 Zrotation Yrotation Xrotation
									JOINT LeftHandIndex1
									{
										OFFSET 0.715260 -0.000000 -0.000000
										CHANNELS 3 Zrotation Yrotation Xrotation
										End Site
										{
											OFFSET 0.000000 0.000000 0.000000
										}
									}
								}
								JOINT LThumb
								{
									OFFSET 0.000000 0.000000 0.000000
									CHANNELS 3 Zrotation Yrotation Xrotation
									End Site
									{
										OFFSET 0.000000 0.000000 0.000000
									}
								}
							}
						}
					}
				}
				JOINT RightShoulder
				{
					OFFSET 0.000000 0.000000 0.000000
					CHANNELS 3 Zrotation Yrotation Xrotation
					JOINT RightArm
					{
						OFFSET -3.136600 1.374050 -0.404650
						CHANNELS 3 Zrotation Yrotation Xrotation
						JOINT RightForeArm
						{
							OFFSET -5.241900 -0.000000 -0.000000
							CHANNELS 3 Zrotation Yrotation Xrotation
							JOINT RightHand
							{
								OFFSET -3.444170 -0.000000 -0.000000
								CHANNELS 3 Zrotation Yrotation Xrotation
								JOINT RightFingerBase
								{
									OFFSET 0.000000 0.000000 0.000000
									CHANNELS 3 Zrotation Yrotation Xrotation
									JOINT RightHandIndex1
									{
										OFFSET -0.622530 -0.000000 -0.000000
										CHANNELS 3 Zrotation Yrotation Xrotation
										End Site
										{
											OFFSET 0.000000 0.000000 0.000000
										}
									}
								}
								JOINT RThumb
								{
									OFFSET 0.000000 0.000000 0.000000
									CHANNELS 3 Zrotation Yrotation Xrotation
									End Site
									{
										OFFSET 0.000000 0.000000 0.000000
									}
								}
							}
						}
					}
				}
			}
		}
	}
}
MOTION
Frames: 12
Frame Time: 0.008333
9.620402 18.545347 6.444720 -1.733069 -60.556114 8.277808 5.441519 1.711911 -0.284418 -17.548926 -25.960707 -18.830770 3.966443 14.680776 44.089404 4.154731 -2.191895 30.587335 2.837600 -10.427500 -30.372300 -10.581594 -3.600397 -1.158335 34.297427 3.654229 -23.933250 -3.946410 -12.220163 37.318875 -2.423469 15.286118 15.764735 -0.080200 1.827300 -5.028500 0.461751 -2.955736 8.069314 0.746613 -4.418691 -5.525827 -1.548353 -1.914528 -13.491905 -13.530618 -12.813382 -2.498936 12.559364 -18.532304 5.426856 7.278400 -9.581400 3.788000 -1.145062 -12.726309 2.303764 -76.496530 22.109826 79.476439 131.622532 -44.043908 -92.804532 1.181404 0.396598 -4.619286 21.426186 3.070213 1.019000 -7.125000 0.000000 0.000000 -5.179500 32.899000 1.541000 0.311851 12.129654 4.518796 -23.885160 25.356970 -64.589741 -48.450843 49.985876 -30.818928 -1.876757 2.855654 -0.260547 -23.536834 35.939987 -12.324100 7.125000 0.000000 0.000000 5.900700 5.196400 6.443900 
9.889816 18.472416 6.637206 -1.156819 -72.958125 7.885585 5.125814 1.802212 -0.405256 -19.218494 -22.659776 -17.963046 4.421553 14.902812 44.591203 2.566248 2.764638 28.127299 2.878700 -10.496000 -30.598300 -10.673766 -3.669685 -1.243769 34.230176 2.814082 -24.411332 -3.980851 -12.383296 37.696506 -2.403046 14.630047 12.585663 -0.271000 3.348400 -9.250200 0.163046 -2.635071 8.059296 0.501378 -3.986195 -5.442228 -2.242208 -1.828450 -13.156717 -13.322691 -11.297333 -3.757807 12.818849 -16.413840 5.838456 7.492700 -8.510200 3.924000 -1.209490 -12.717978 2.275032 -76.047305 21.296153 80.583921 132.024165 -43.850859 -93.230022 1.233488 0.503838 -6.245834 23.762298 4.543174 1.728300 -7.125000 0.000000 0.000000 -3.434100 34.487600 0.887400 0.169758 12.103450 4.579444 -25.184544 27.041869 -60.968706 -49.618432 51.126918 -31.219739 -1.931798 2.849244 2.930757 -23.925376 33.922153 -11.826600 7.125000 0.000000 0.000000 5.524200 3.336200 5.863000 
10.123818 18.390493 6.794281 0.310725 -85.786213 6.345692 4.877541 1.990279 -0.588414 -20.997466 -15.627114 -17.960776 4.729808 14.964294 44.641219 0.719861 7.439155 24.841282 3.041900 -10.762600 -31.483200 -10.576658 -3.653712 -1.358691 34.334275 2.261811 -24.301498 -4.109732 -12.764107 38.718905 -2.469717 13.099978 6.274532 -2.038700 8.946200 -25.627200 -0.576581 -2.197946 8.482604 0.301683 -3.488653 -5.461019 -2.563325 -1.636029 -13.380289 -12.753691 -10.014522 -4.876117 12.871577 -14.616348 6.315202 7.446100 -7.597600 4.041700 -1.239103 -12.688676 2.231764 -75.771080 20.603610 80.347955 131.596017 -43.985959 -92.873688 1.129054 0.338930 -4.930244 19.874919 3.438847 1.085200 -7.125000 0.000000 0.000000 -6.428200 33.313100 1.851400 0.103923 12.164312 4.632514 -26.145571 27.842054 -57.854341 -52.542900 52.755570 -33.492036 -1.805679 3.163585 5.095421 -21.135140 37.148679 -11.056300 7.125000 0.000000 0.000000 7.526000 5.804600 8.317500 
10.367256 18.350752 6.936480 170.248744 -81.375489 -163.212623 4.788027 1.931489 -0.946845 -23.881388 -7.927915 -19.141481 4.836846 14.861451 44.135902 -0.945720 11.379761 22.311140 3.304700 -11.172700 -32.864500 -10.515475 -3.818327 -1.209555 32.851233 3.308143 -24.709154 -4.371845 -13.246177 40.137672 -2.460751 12.788621 6.349782 -0.635900 5.101900 -14.199400 -2.733352 -1.808907 8.550842 -0.001026 -3.267184 -5.609185 -2.529400 -1.549877 -13.825242 -12.412236 -8.776788 -5.955193 13.415030 -12.990632 6.805015 7.644100 -6.785400 4.275600 -1.309580 -12.662580 2.129675 -75.439311 20.203262 80.568568 131.239588 -44.114655 -92.655641 1.280671 0.353977 -5.712347 22.776597 2.238244 0.790700 -7.125000 0.000000 0.000000 -4.119900 32.123300 1.301400 -0.045735 12.138355 4.810894 -28.247475 28.903150 -57.798791 -53.427704 53.863781 -34.129433 -1.475846 3.372067 4.862944 -14.707155 42.693509 -8.326300 7.125000 0.000000 0.000000 11.486300 9.803400 13.525300 
10.583275 18.403036 7.104434 173.253448 -68.538877 -165.746448 5.034046 2.201675 -1.123373 -26.878668 -1.340458 -20.658155 4.847478 14.746956 43.302697 -2.690213 15.445057 20.036007 3.704900 -11.756900 -34.877500 -10.107473 -3.598609 -1.200086 31.148865 4.505379 -24.404406 -4.595631 -13.618321 41.327973 -2.422865 11.592034 4.699386 -1.005200 6.379600 -17.889800 -4.099884 -1.454945 7.717351 -0.362500 -3.067592 -5.729498 -3.158384 -1.545510 -13.788140 -11.991710 -7.658050 -6.781720 14.291075 -11.665616 7.236763 8.032200 -6.147100 4.459200 -1.418095 -12.551439 2.037787 -74.930087 19.488767 80.714943 130.650216 -44.344661 -92.080768 1.116212 0.294114 -5.804899 19.100271 2.905894 0.885400 -7.125000 0.000000 0.000000 -6.998900 32.796400 2.105800 -0.214474 12.107560 5.032736 -29.837240 28.775199 -54.594821 -59.696632 55.945200 -38.547218 -1.943129 3.319311 -8.843147 -11.011120 41.159680 -5.879500 7.125000 0.000000 0.000000 12.972900 7.299600 14.879800 
10.770765 18.471306 7.252406 174.206958 -55.948477 -166.106860 5.346843 2.381791 -1.243226 -29.712733 2.948904 -22.288654 4.881807 14.700007 42.485271 -4.882944 20.481954 17.430691 3.869900 -11.985200 -35.679700 -9.779674 -3.359860 -0.948182 29.135017 7.822289 -23.846102 -4.782422 -13.971914 42.402722 -2.298830 10.363393 4.751740 -0.881800 5.986300 -16.744600 -5.635491 -1.231231 7.012276 -0.588062 -3.202128 -6.083328 -3.011075 -1.635368 -14.462764 -12.014274 -6.762747 -8.058654 15.035112 -10.683758 8.158037 8.348300 -5.687700 5.078900 -1.407021 -12.492686 1.818106 -75.589580 19.242702 80.664649 129.786101 -44.669073 -91.204031 1.051228 0.290838 -5.694073 18.017630 2.829442 0.806700 -7.125000 0.000000 0.000000 -7.809700 32.680200 2.375600 -0.362651 12.104220 5.315233 -32.333136 29.274600 -54.362140 -65.583596 57.814100 -42.695619 -2.145441 3.201457 -20.738220 -5.249668 38.818687 -2.496900 7.125000 0.000000 0.000000 15.529700 4.083500 17.222200 
10.942271 18.556337 7.362524 176.887123 -44.547422 -167.996262 5.598718 2.527161 -1.311612 -30.062072 4.548936 -23.307036 5.012087 14.775570 42.057827 -7.497778 26.319231 14.261464 3.409200 -11.329700 -33.400200 -9.633663 -3.225534 -0.791737 29.131135 10.381763 -22.672009 -4.904254 -14.187200 43.229325 -1.976992 8.078815 7.151402 -0.853700 5.892500 -16.472800 -5.116712 -1.384932 5.801427 -0.683259 -3.485415 -6.228395 -3.584764 -1.981488 -14.204358 -11.832569 -6.224092 -8.744270 15.892589 -10.300397 8.499639 8.764900 -5.558500 5.350400 -1.404393 -12.393230 1.699014 -75.465139 18.831688 80.764521 129.443648 -44.811813 -90.878806 1.009212 0.290186 -5.273102 17.277937 3.353990 0.921600 -7.125000 0.000000 0.000000 -8.426100 33.190900 2.461500 -0.532638 11.963640 5.637243 -34.604070 28.681288 -56.339519 -71.584904 59.240618 -47.583687 -2.053707 3.293154 -30.275102 1.849941 33.966075 0.998600 7.125000 0.000000 0.000000 18.889200 -1.253900 19.574300 
11.101788 18.627825 7.479637 178.705713 -34.279206 -169.062865 5.832080 2.579824 -1.385117 -29.768457 4.925854 -24.212664 5.246584 14.999864 42.405774 -9.749404 31.166136 11.157405 2.314200 -9.492000 -27.346800 -9.629610 -3.060403 -0.606982 29.169696 14.119565 -20.821324 -5.009135 -14.335087 43.863589 -1.741337 5.936799 10.529774 -0.861200 5.917900 -16.546400 -4.110302 -1.887790 4.878317 -0.748002 -4.192244 -6.316069 -4.252300 -2.593711 -13.899375 -11.506302 -6.136391 -8.663113 16.206185 -10.428705 8.099055 8.924700 -5.711900 5.146700 -1.389978 -12.266261 1.609455 -75.185441 18.304784 80.865317 129.137365 -44.947114 -90.649735 1.007394 0.305385 -4.863791 17.374252 3.930823 1.090300 -7.125000 0.000000 0.000000 -8.410500 33.767200 2.338300 -0.661219 11.716060 6.093200 -37.699153 29.196554 -60.406224 -73.055043 60.054007 -48.359854 -2.176659 3.087709 -31.974435 -0.142988 32.461151 0.044400 7.125000 0.000000 0.000000 17.852600 -2.453700 17.978900 
11.249427 18.668010 7.558562 -179.737510 -24.471095 -169.768698 5.992681 2.639183 -1.422920 -28.808645 7.578361 -26.264058 5.868431 15.389273 43.785652 -10.240131 33.138677 12.327336 1.393700 -7.468700 -21.111700 -9.718849 -2.994255 -0.382004 29.697142 17.000245 -19.301294 -5.105440 -14.370891 44.221926 -1.845652 4.791734 15.950684 -0.495900 4.515100 -12.530400 -2.876893 -2.441593 4.167734 -0.681888 -5.108791 -6.553518 -4.780754 -3.308768 -14.353669 -11.999344 -6.214500 -8.578927 16.939658 -11.172422 8.547190 9.340700 -6.273400 5.636100 -1.285104 -12.348346 1.506242 -76.879176 19.462539 80.219874 128.620629 -45.182413 -90.012910 0.899680 0.267821 -4.186345 15.291496 3.407703 0.822600 -7.125000 0.000000 0.000000 -9.939900 33.175900 2.918000 -0.845962 11.682265 6.081083 -39.039188 26.795384 -62.745856 -72.994295 60.140712 -48.715192 -2.108037 3.297893 -32.824678 1.356381 33.094993 0.664300 7.125000 0.000000 0.000000 18.557100 -2.070700 18.905600 
11.389739 18.684883 7.617951 -178.435768 -15.335141 -170.161353 6.117051 2.688370 -1.465115 -27.387793 9.492245 -28.036271 6.769262 15.932345 45.912392 -9.917402 34.079194 15.501177 0.721500 -5.427800 -15.133000 -9.811231 -2.965342 -0.253500 30.335163 18.653219 -18.160259 -5.157816 -14.335275 44.319804 -2.114788 4.460545 19.971651 -0.560300 4.794700 -13.323900 -1.542933 -3.230223 3.294485 -0.535536 -6.198503 -6.565498 -5.192631 -4.060720 -13.825839 -12.046089 -6.675978 -8.916462 16.906866 -12.177592 8.450515 9.265000 -6.869400 5.881000 -1.221625 -12.326081 1.508149 -76.858866 19.384346 79.803789 129.524038 -44.803602 -90.921591 0.790440 0.241798 -5.489119 13.360667 4.112265 0.879700 -7.125000 0.000000 0.000000 -11.512400 33.858400 3.200900 -0.987687 11.521636 6.107706 -40.653416 24.935062 -65.815797 -71.204341 60.024694 -47.416272 -2.202114 3.337628 -30.860766 -1.471532 36.176913 -0.677600 7.125000 0.000000 0.000000 17.093700 0.983000 18.209100 
11.529719 18.635041 7.668570 -177.397579 -6.684541 -170.632650 6.190758 2.745163 -1.428490 -25.744533 10.375236 -29.017568 7.797074 16.513190 48.485908 -9.285316 34.561315 18.870925 0.205600 -2.919800 -8.055500 -9.813936 -3.026570 -0.200082 31.004108 18.174766 -17.779386 -5.164444 -14.225610 44.211723 -2.345124 5.704825 21.428856 -0.724500 5.438800 -15.164400 -0.370434 -3.972216 3.135728 -0.378116 -7.354280 -6.651026 -5.594249 -4.857221 -14.255395 -12.041188 -10.103321 -7.570262 16.618025 -12.752818 8.566224 9.221100 -5.484800 5.827800 -1.145531 -12.415867 1.550256 -77.955909 19.650550 79.203580 128.792833 -45.114890 -90.164429 0.831863 0.242819 -4.493766 14.012259 3.012939 0.663900 -7.125000 0.000000 0.000000 -10.862000 32.759500 3.308200 -1.096184 11.567405 6.008082 -40.640722 22.407697 -67.400516 -69.533400 59.445248 -46.495619 -2.276907 3.392469 -30.580225 -4.376386 37.828710 -2.298300 7.125000 0.000000 0.000000 15.580500 2.757800 16.938700 
11.663482 18.508826 7.709976 -176.925903 1.819680 -171.333678 6.156898 2.847035 -1.275728 -24.492746 10.221177 -28.960784 8.792266 17.043593 51.007960 -9.021764 35.716978 21.220403 0.004900 0.449800 1.236000 -9.758184 -3.203280 -0.228953 31.345980 15.079912 -18.707265 -5.233256 -14.083107 44.194731 -2.689402 9.711210 22.621249 -0.204700 2.913300 -8.037600 0.378040 -6.925162 3.345874 -0.102635 -8.063868 -6.742665 -5.790914 -3.911497 -14.697919 -10.554230 -10.931404 -6.521323 15.223194 -14.088126 7.748130 8.088800 -6.325900 5.148200 -0.993368 -12.332375 1.558092 -79.104301 20.353086 78.148971 129.585344 -44.777026 -90.892936 0.751281 0.255045 -4.283216 12.913248 3.583368 0.729000 -7.125000 0.000000 0.000000 -11.754800 33.276300 3.439900 -1.077245 11.720523 5.983663 -40.634279 20.848641 -69.250278 -68.174982 58.950043 -45.692163 -2.325786 3.428122 -31.144375 -5.646482 39.909940 -3.177700 7.125000 0.000000 0.000000 14.986300 4.843400 16.760900 
